<svg width="36" height="36" viewBox="0 0 36 36" fill="none" xmlns="http://www.w3.org/2000/svg">
<path fill-rule="evenodd" clip-rule="evenodd" d="M12.6001 9.8C12.6001 7.70132 14.3014 6 16.4001 6C18.4988 6 20.2001 7.70132 20.2001 9.8C20.2001 9.93499 20.193 10.0685 20.1792 10.2H22.8C24.4569 10.2 25.8 11.5431 25.8 13.2V15.8209C25.9315 15.8071 26.0649 15.8 26.1999 15.8C28.2986 15.8 29.9999 17.5013 29.9999 19.6C29.9999 21.6987 28.2986 23.4 26.1999 23.4C26.0649 23.4 25.9315 23.3929 25.8 23.3791V26C25.8 27.6569 24.4569 29 22.8 29H10C8.34315 29 7 27.6569 7 26V22.0254C7 21.2552 7.83406 20.7742 8.50073 21.1598C8.76446 21.3124 9.07048 21.4 9.4 21.4C10.3941 21.4 11.2 20.5941 11.2 19.6C11.2 18.6059 10.3941 17.8 9.4 17.8C9.07048 17.8 8.76446 17.8876 8.50073 18.0402C7.83406 18.4258 7 17.9448 7 17.1746V13.2C7 11.5431 8.34315 10.2 10 10.2H12.621C12.6072 10.0685 12.6001 9.93499 12.6001 9.8ZM16.4001 8C15.406 8 14.6001 8.80589 14.6001 9.8C14.6001 10.1295 14.6877 10.4355 14.8403 10.6993C15.2259 11.3659 14.7448 12.2 13.9747 12.2H10C9.44772 12.2 9 12.6477 9 13.2V15.8209C9.13155 15.8071 9.26501 15.8 9.4 15.8C11.4987 15.8 13.2 17.5013 13.2 19.6C13.2 21.6987 11.4987 23.4 9.4 23.4C9.26501 23.4 9.13155 23.3929 9 23.3791V26C9 26.5523 9.44772 27 10 27H22.8C23.3523 27 23.8 26.5523 23.8 26V22.0255C23.8 21.2553 24.634 20.7742 25.3007 21.1598C25.5644 21.3124 25.8704 21.4 26.1999 21.4C27.194 21.4 27.9999 20.5941 27.9999 19.6C27.9999 18.6059 27.194 17.8 26.1999 17.8C25.8704 17.8 25.5644 17.8876 25.3007 18.0402C24.634 18.4258 23.8 17.9447 23.8 17.1745V13.2C23.8 12.6477 23.3523 12.2 22.8 12.2H18.8255C18.0553 12.2 17.5742 11.3659 17.9599 10.6993C18.1125 10.4355 18.2001 10.1295 18.2001 9.8C18.2001 8.80589 17.3942 8 16.4001 8Z" fill="white"/>
</svg>
