<svg width="36" height="36" viewBox="0 0 36 36" fill="none" xmlns="http://www.w3.org/2000/svg">
<path d="M8.07493 12.6602L6.77403 23.2843C6.45036 25.9275 9.50764 27.6218 11.5774 25.9463L14.8136 23.3265C15.1332 23.0678 15.5319 22.9267 15.9431 22.9267H18.0001H20.0572C20.4683 22.9267 20.867 23.0678 21.1866 23.3265L24.4228 25.9463C26.4926 27.6218 29.5499 25.9275 29.2262 23.2843L27.9253 12.6602C27.654 10.4446 25.5653 8.92046 23.3725 9.33813L20.1833 9.9456C18.7408 10.2204 17.2594 10.2204 15.817 9.9456L12.6278 9.33813C10.435 8.92046 8.34623 10.4446 8.07493 12.6602Z" stroke="white" stroke-width="2"/>
<path fill-rule="evenodd" clip-rule="evenodd" d="M24.0787 14.1403C24.0787 14.8326 23.5174 15.3938 22.8251 15.3938C22.1328 15.3938 21.5716 14.8326 21.5716 14.1403C21.5716 13.448 22.1328 12.8867 22.8251 12.8867C23.5174 12.8867 24.0787 13.448 24.0787 14.1403ZM13.2834 13.1384C12.7296 13.1384 12.2806 13.5874 12.2806 14.1413V15.6455H10.7763C10.2225 15.6455 9.7735 16.0945 9.7735 16.6484C9.7735 17.2022 10.2225 17.6512 10.7763 17.6512H12.2806V19.1555C12.2806 19.7093 12.7296 20.1583 13.2834 20.1583C13.8373 20.1583 14.2863 19.7093 14.2863 19.1555V17.6512H15.7905C16.3444 17.6512 16.7934 17.2022 16.7934 16.6484C16.7934 16.0945 16.3444 15.6455 15.7905 15.6455H14.2863V14.1413C14.2863 13.5874 13.8373 13.1384 13.2834 13.1384ZM26.5838 16.647C26.5838 17.3393 26.0226 17.9005 25.3302 17.9005C24.6379 17.9005 24.0767 17.3393 24.0767 16.647C24.0767 15.9547 24.6379 15.3934 25.3302 15.3934C26.0226 15.3934 26.5838 15.9547 26.5838 16.647ZM22.8251 20.4082C23.5174 20.4082 24.0787 19.8469 24.0787 19.1546C24.0787 18.4623 23.5174 17.9011 22.8251 17.9011C22.1328 17.9011 21.5716 18.4623 21.5716 19.1546C21.5716 19.8469 22.1328 20.4082 22.8251 20.4082ZM20.3171 17.9005C21.0094 17.9005 21.5706 17.3393 21.5706 16.647C21.5706 15.9547 21.0094 15.3934 20.3171 15.3934C19.6248 15.3934 19.0635 15.9547 19.0635 16.647C19.0635 17.3393 19.6248 17.9005 20.3171 17.9005Z" fill="white"/>
</svg>
